<svg width="214" height="214" viewBox="0 0 214 214" fill="none" xmlns="http://www.w3.org/2000/svg">
<circle r="106.222" transform="matrix(1 0 0 -1 107.111 107)" fill="url(#paint0_linear_51_7)" fill-opacity="0.95"/>
<circle cx="107.556" cy="107.445" r="44.4444" fill="white"/>
<path d="M121.491 99.5764C121.029 98.507 120.363 97.5379 119.531 96.7234C118.697 95.9064 117.715 95.2572 116.636 94.8111C115.518 94.3466 114.319 94.1088 113.108 94.1116C111.409 94.1116 109.752 94.5768 108.312 95.4554C107.967 95.6656 107.64 95.8964 107.33 96.148C107.019 95.8964 106.692 95.6656 106.347 95.4554C104.907 94.5768 103.25 94.1116 101.551 94.1116C100.328 94.1116 99.1427 94.3459 98.0228 94.8111C96.9409 95.259 95.9658 95.9033 95.1285 96.7234C94.2946 97.537 93.6285 98.5063 93.1679 99.5764C92.689 100.689 92.4443 101.871 92.4443 103.087C92.4443 104.235 92.6786 105.43 93.1438 106.647C93.5332 107.663 94.0914 108.718 94.8046 109.782C95.9348 111.467 97.4888 113.224 99.4183 115.006C102.616 117.959 105.782 119.999 105.917 120.081L106.733 120.605C107.095 120.836 107.56 120.836 107.922 120.605L108.739 120.081C108.873 119.995 112.036 117.959 115.237 115.006C117.167 113.224 118.721 111.467 119.851 109.782C120.564 108.718 121.126 107.663 121.512 106.647C121.977 105.43 122.211 104.235 122.211 103.087C122.215 101.871 121.97 100.689 121.491 99.5764Z" fill="url(#paint1_linear_51_7)" fill-opacity="0.95"/>
<defs>
<linearGradient id="paint0_linear_51_7" x1="202.222" y1="1.06065e-05" x2="32.4445" y2="169.778" gradientUnits="userSpaceOnUse">
<stop offset="0.411458" stop-color="#731EFF"/>
<stop offset="0.729167" stop-color="#AD00FF" stop-opacity="0.95"/>
</linearGradient>
<linearGradient id="paint1_linear_51_7" x1="94.2221" y1="96.3338" x2="116.444" y2="116.778" gradientUnits="userSpaceOnUse">
<stop stop-color="#CC00FF"/>
<stop offset="1" stop-color="#8F00FF"/>
</linearGradient>
</defs>
</svg>
